<?xml version="1.0" standalone="no"?>
<!DOCTYPE svg PUBLIC "-//W3C//DTD SVG 20010904//EN"
 "http://www.w3.org/TR/2001/REC-SVG-20010904/DTD/svg10.dtd">
<svg version="1.0" xmlns="http://www.w3.org/2000/svg"
 width="300.000000pt" height="302.000000pt" viewBox="0 0 300.000000 302.000000"
 preserveAspectRatio="xMidYMid meet">
<metadata>
Created by potrace 1.10, written by Peter Selinger 2001-2011
</metadata>
<g transform="translate(0.000000,302.000000) scale(0.100000,-0.100000)"
fill="#000000" stroke="none">
<path d="M1237 2963 c-15 -14 -6 -23 23 -23 17 0 30 5 30 11 0 5 -5 7 -10 4
-6 -4 -17 -2 -24 4 -7 6 -16 8 -19 4z"/>
<path d="M1300 2958 c0 -4 23 -8 52 -8 28 0 48 3 44 7 -10 10 -96 11 -96 1z"/>
<path d="M1413 2953 c4 -6 39 -13 78 -17 40 -3 83 -9 96 -12 13 -4 23 -2 23 4
0 6 -8 11 -17 10 -23 0 -105 10 -151 18 -22 4 -33 3 -29 -3z"/>
<path d="M1115 2937 c-27 -5 -58 -13 -68 -18 -10 -5 -22 -7 -27 -4 -6 4 -10 2
-10 -4 0 -5 -8 -10 -17 -10 -39 -1 -52 -5 -47 -12 6 -10 -9 -19 -39 -21 -14
-1 -23 -6 -21 -10 5 -7 -19 -12 -39 -9 -5 1 -6 -3 -3 -8 7 -11 -30 -25 -44
-16 -5 3 -10 -1 -10 -9 0 -9 -7 -16 -16 -16 -8 0 -12 -4 -9 -10 3 -5 -5 -12
-19 -16 -14 -3 -24 -11 -23 -17 1 -6 -2 -11 -8 -12 -10 0 -65 -52 -65 -61 0
-6 -19 -30 -49 -60 -23 -23 -23 -24 -3 -24 12 0 29 13 42 34 11 19 45 57 75
85 87 79 145 110 340 186 23 9 32 11 103 21 29 4 54 10 56 13 6 9 -42 8 -99
-2z"/>
<path d="M1206 2919 c-215 -31 -392 -121 -523 -264 l-60 -65 -79 0 c-44 0 -86
-5 -94 -10 -10 -7 15 -10 81 -10 l95 0 85 81 c118 112 229 179 359 214 8 2 38
11 65 20 29 9 105 18 180 22 148 7 270 -10 384 -53 36 -14 80 -29 96 -34 17
-5 65 -30 109 -55 43 -24 86 -47 95 -50 12 -3 37 12 74 44 119 105 241 128
396 76 118 -39 245 -164 318 -313 38 -76 38 -79 38 -197 0 -112 -2 -124 -30
-185 -37 -81 -83 -147 -129 -182 -19 -16 -38 -28 -41 -28 -4 0 -13 -7 -22 -16
-12 -12 -14 -26 -9 -62 4 -26 10 -94 12 -152 3 -58 8 -107 11 -110 7 -7 -3
261 -12 286 -5 17 1 26 37 47 121 71 208 232 208 387 0 210 -135 426 -328 522
-87 43 -87 43 -197 43 -104 0 -114 -2 -177 -33 -36 -18 -82 -50 -102 -72 l-36
-40 -92 50 c-236 125 -479 173 -712 139z"/>
<path d="M1632 2921 c-10 -6 -2 -11 25 -17 21 -4 43 -8 48 -8 6 -1 12 -3 15
-6 3 -3 41 -21 85 -39 44 -18 106 -48 139 -67 l58 -35 49 46 c28 26 75 58 107
73 50 24 69 27 157 26 68 0 114 -6 144 -17 24 -10 46 -15 48 -13 2 2 -26 14
-63 26 -94 32 -228 25 -309 -15 -31 -15 -61 -36 -68 -46 -6 -10 -17 -19 -23
-19 -7 0 -14 -6 -17 -14 -3 -8 -16 -13 -29 -11 -36 4 -109 41 -100 50 4 5 2 6
-3 2 -6 -3 -31 5 -55 17 -25 13 -51 21 -57 19 -7 -3 -13 0 -13 5 0 12 -46 31
-82 34 -16 1 -28 6 -28 10 0 10 -12 10 -28 -1z"/>
<path d="M1189 2845 c-125 -26 -299 -110 -376 -182 -26 -24 -34 -38 -31 -60 4
-36 33 -49 125 -57 67 -5 78 -3 153 29 45 19 90 35 101 35 11 0 27 4 37 9 46
23 99 31 208 32 99 0 134 -4 207 -26 101 -29 167 -60 167 -78 0 -6 -5 -19 -10
-27 -8 -12 -12 -11 -32 7 -13 11 -66 35 -118 53 -74 25 -116 32 -190 34 -101
4 -290 -21 -302 -38 -4 -6 -11 -11 -15 -11 -13 -1 -37 -19 -53 -40 -15 -19
-15 -19 12 -2 36 23 120 53 186 66 72 15 218 15 273 1 114 -29 219 -72 219
-90 0 -5 -9 -29 -19 -52 -11 -24 -54 -137 -96 -253 -42 -115 -95 -259 -117
-320 -24 -65 -42 -133 -44 -165 -2 -30 -1 -48 3 -40 6 15 147 396 250 675 86
233 79 220 105 203 64 -41 112 -24 133 49 21 72 5 92 -127 157 -164 80 -239
98 -428 102 -103 2 -177 -2 -221 -11z m386 -34 c101 -21 219 -65 313 -117 34
-19 62 -36 62 -38 0 -19 -33 -106 -41 -106 -5 0 -28 12 -50 26 -23 14 -43 23
-46 20 -3 -2 12 -14 34 -25 51 -27 35 -27 -22 1 -32 15 -41 25 -32 31 8 6 6 7
-6 3 -22 -7 -68 14 -60 27 3 6 1 7 -5 3 -14 -9 -63 4 -57 14 3 5 -5 6 -17 3
-17 -3 -19 -2 -10 5 10 7 6 9 -15 9 -15 1 -77 6 -136 13 -86 10 -124 10 -185
0 -42 -7 -87 -13 -99 -14 -13 -1 -23 -4 -23 -8 0 -5 -7 -8 -16 -8 -9 0 -55
-18 -102 -40 l-85 -40 -88 11 c-49 7 -89 15 -89 18 0 26 112 105 222 156 157
72 370 94 553 56z"/>
<path d="M2554 2837 c121 -80 180 -142 238 -252 21 -38 38 -64 38 -57 0 7 -7
24 -16 37 -9 14 -13 25 -9 25 3 0 -3 13 -14 29 -12 16 -21 36 -21 45 0 9 -4
16 -8 16 -5 0 -15 11 -22 25 -7 13 -17 22 -21 20 -4 -3 -10 3 -14 12 -7 24
-81 79 -131 98 -22 8 -31 10 -20 2z"/>
<path d="M2285 2801 c-107 -18 -218 -115 -251 -218 -29 -90 -25 -219 10 -308
27 -71 89 -174 112 -188 33 -20 40 -122 14 -224 -11 -42 -11 -55 -1 -67 29
-35 88 -10 198 82 41 36 84 62 101 65 186 30 316 190 313 385 -4 234 -164 432
-380 472 -58 11 -56 11 -116 1z m210 -61 c68 -33 175 -141 208 -212 118 -249
-5 -534 -238 -552 -38 -3 -54 -12 -109 -63 -58 -53 -162 -121 -171 -111 -2 2
5 28 15 58 12 34 19 83 20 128 0 73 0 73 -45 120 -46 50 -95 139 -114 207 -14
53 -14 197 1 249 14 49 68 128 108 156 54 39 100 50 190 47 64 -3 98 -10 135
-27z"/>
<path d="M2346 2457 c-34 -34 -40 -65 -21 -110 19 -46 69 -80 105 -71 111 26
93 193 -22 202 -29 3 -43 -2 -62 -21z m101 -39 c31 -29 30 -73 -2 -94 -33 -21
-62 -10 -82 32 -33 69 28 114 84 62z"/>
<path d="M413 2586 c-18 -16 -33 -34 -33 -40 0 -5 14 3 30 19 17 16 43 35 58
41 26 12 26 12 3 11 -13 -1 -39 -15 -58 -31z"/>
<path d="M335 2506 c-9 -14 -15 -31 -13 -38 3 -7 12 2 22 20 21 41 14 54 -9
18z"/>
<path d="M633 2498 c-18 -5 -40 -20 -49 -34 -35 -52 -7 -132 181 -519 80 -166
121 -252 174 -369 67 -145 109 -233 282 -584 99 -200 179 -367 179 -372 0 -4
4 -10 8 -12 11 -4 51 -91 78 -168 12 -35 28 -66 34 -68 31 -11 -11 94 -167
413 -91 187 -240 495 -330 685 -90 190 -204 428 -253 530 -129 271 -160 345
-167 398 -8 74 -1 77 171 65 110 -8 152 -14 177 -29 39 -22 56 -55 359 -681
102 -211 188 -383 192 -383 4 0 12 19 18 43 16 62 52 164 115 327 31 80 62
163 70 185 137 407 174 495 210 495 7 0 15 -25 19 -62 10 -99 69 -213 187
-359 l21 -26 -23 -74 c-12 -41 -49 -146 -82 -234 -32 -88 -101 -284 -153 -435
-108 -320 -191 -557 -228 -654 -31 -82 -104 -216 -117 -216 -5 0 -9 -4 -9 -10
0 -21 30 -9 54 23 43 57 72 119 126 267 29 80 76 210 105 290 29 80 78 219
108 310 31 91 77 224 102 295 113 312 128 361 129 411 1 45 -3 55 -41 100 -74
89 -153 259 -153 331 0 18 -9 38 -23 51 -54 50 -100 -10 -172 -224 -68 -202
-136 -391 -257 -706 -6 -16 -13 -28 -17 -28 -6 0 -101 190 -306 615 -48 99
-100 207 -115 240 -56 123 -110 160 -251 170 -46 4 -100 8 -119 9 -19 1 -50
-1 -67 -6z"/>
<path d="M1051 2481 c-1 -27 15 -61 201 -436 134 -268 185 -365 194 -365 11 0
-77 186 -273 580 -70 141 -122 235 -122 221z"/>
<path d="M1781 2443 c-13 -32 -69 -184 -126 -338 -57 -154 -113 -304 -124
-334 -12 -29 -20 -55 -18 -58 3 -2 11 13 20 34 8 21 26 63 40 93 26 57 40 93
112 295 51 146 50 142 85 235 31 80 45 130 37 130 -2 0 -14 -26 -26 -57z"/>
<path d="M720 2431 c0 -6 4 -11 9 -11 8 0 96 -172 177 -345 20 -44 100 -208
177 -365 161 -329 187 -385 187 -399 0 -6 5 -11 10 -11 6 0 10 -5 10 -12 0 -7
60 -132 134 -278 73 -146 139 -283 146 -305 7 -22 20 -49 28 -60 14 -20 14
-20 7 0 -4 11 -12 36 -17 55 -6 19 -73 162 -149 317 -76 155 -139 284 -139
287 0 3 -59 128 -131 278 -72 150 -160 336 -197 413 -135 286 -217 440 -234
443 -10 2 -18 -1 -18 -7z"/>
<path d="M362 2340 c-54 -205 -73 -529 -39 -670 10 -41 22 -84 26 -95 5 -11
16 -45 26 -75 31 -98 131 -293 193 -376 63 -85 230 -240 330 -307 84 -56 220
-123 288 -142 35 -10 68 -27 82 -42 27 -30 37 -26 21 10 -9 20 -23 28 -60 36
-64 14 -265 116 -358 182 -171 120 -338 315 -420 491 -41 88 -90 233 -112 333
-29 130 -12 408 37 612 9 34 14 77 12 95 -2 27 -7 18 -26 -52z"/>
<path d="M381 2220 c-68 -361 -36 -609 114 -898 117 -225 326 -428 571 -554
52 -26 123 -56 156 -65 56 -16 64 -22 91 -65 17 -26 31 -48 32 -48 6 0 -22 68
-37 92 -12 18 -28 27 -56 30 -22 3 -82 27 -135 52 -187 91 -351 219 -475 370
-56 69 -162 239 -162 260 0 8 -7 19 -15 26 -8 6 -14 15 -13 18 1 4 -6 22 -15
40 -10 17 -15 32 -12 32 3 0 1 8 -4 19 -46 85 -76 443 -48 561 41 171 48 209
45 259 -3 46 -7 30 -37 -129z"/>
<path d="M477 2253 c-21 -24 -34 -78 -48 -202 -16 -147 -5 -310 30 -433 6 -21
15 -53 20 -72 9 -36 87 -198 123 -256 28 -46 121 -165 167 -213 95 -101 342
-267 398 -267 26 0 -1 24 -56 50 -28 13 -48 27 -45 31 3 5 -1 6 -8 4 -18 -7
-154 88 -150 104 1 7 -2 10 -7 7 -16 -10 -131 105 -209 206 -165 217 -236 420
-237 683 0 122 20 305 37 338 9 18 11 18 29 1 10 -9 34 -45 53 -78 l34 -61 -9
-85 c-24 -210 47 -481 176 -675 60 -91 188 -218 286 -285 60 -41 69 -51 109
-135 33 -67 45 -84 48 -68 2 13 -6 40 -17 60 -11 21 -26 54 -34 73 -8 20 -29
48 -48 63 -177 143 -221 183 -260 234 -24 32 -47 60 -50 63 -3 3 -14 20 -24
39 -14 28 -15 35 -3 43 10 6 8 8 -7 6 -13 -2 -21 4 -23 17 -4 17 -3 18 13 5
15 -12 14 -6 -5 30 -13 25 -36 88 -52 140 -25 86 -28 90 -22 40 4 -30 11 -66
16 -79 4 -13 7 -26 5 -28 -5 -5 -18 29 -48 127 -20 65 -24 99 -25 251 l-2 177
-32 61 c-31 59 -70 101 -95 101 -6 0 -19 -8 -28 -17z"/>
<path d="M929 2167 c14 -37 40 -87 46 -87 6 0 -35 93 -46 105 -7 6 -6 0 0 -18z"/>
<path d="M1930 2034 c-11 -26 -20 -57 -20 -70 0 -13 -4 -24 -10 -24 -5 0 -13
-12 -16 -27 -4 -16 -12 -39 -19 -53 -19 -36 -55 -144 -55 -163 0 -8 -4 -17 -9
-19 -5 -1 -25 -48 -44 -103 -31 -90 -80 -226 -123 -342 -9 -24 -20 -43 -25
-43 -19 0 -60 102 -62 156 l-2 55 -14 -30 c-13 -27 -11 -36 28 -128 22 -54 41
-105 42 -113 1 -20 35 55 74 165 90 249 139 383 190 515 31 80 61 161 67 180
6 19 17 47 24 63 8 15 10 27 5 27 -6 0 -19 -21 -31 -46z"/>
<path d="M2781 2036 c-25 -40 -101 -112 -136 -128 -19 -9 -25 -18 -24 -42 1
-23 3 -25 6 -9 2 12 26 38 52 57 46 32 76 66 116 129 9 15 15 27 12 27 -3 0
-15 -15 -26 -34z"/>
<path d="M980 2052 c0 -4 4 -12 9 -17 4 -6 29 -55 54 -110 73 -162 113 -248
223 -478 57 -119 122 -258 145 -307 23 -50 44 -88 47 -86 2 3 -15 45 -38 93
-23 48 -53 115 -65 148 -22 58 -131 293 -160 347 -8 14 -15 33 -15 42 0 9 -4
16 -10 16 -5 0 -10 8 -10 18 0 9 -9 28 -20 42 -11 14 -20 30 -20 35 0 17 -124
265 -132 265 -5 0 -8 -4 -8 -8z"/>
<path d="M1920 1823 c-49 -135 -93 -257 -142 -393 -105 -285 -147 -413 -160
-482 -9 -43 -12 -78 -8 -78 4 0 13 35 20 77 7 43 21 94 30 113 10 19 35 85 55
145 21 61 41 115 45 120 4 6 17 39 30 75 12 36 54 155 92 265 69 196 90 266
84 273 -2 1 -23 -50 -46 -115z"/>
<path d="M2433 1838 c-41 -29 -73 -95 -73 -150 -1 -45 -12 -107 -32 -173 -11
-37 -28 -72 -89 -184 -38 -70 -181 -214 -254 -257 -70 -41 -84 -62 -124 -183
-21 -63 -21 -65 -3 -83 18 -19 20 -18 78 3 115 42 277 153 367 253 96 106 199
299 222 417 3 13 10 51 16 84 32 168 8 295 -55 295 -12 0 -36 -10 -53 -22z
m81 -14 c10 -25 7 -193 -4 -264 -40 -251 -199 -493 -418 -634 -75 -49 -221
-120 -229 -112 -2 2 3 19 12 36 9 18 24 56 32 84 19 64 22 68 89 106 124 70
280 255 344 408 34 80 60 201 60 276 0 50 3 56 38 85 41 34 67 39 76 15z"/>
<path d="M730 1808 c0 -9 181 -378 185 -378 6 0 -19 56 -99 219 -69 142 -86
173 -86 159z"/>
<path d="M2236 1670 c-93 -58 -101 -65 -62 -56 17 4 35 13 40 20 6 6 30 25 54
41 37 24 61 46 50 45 -2 -1 -38 -23 -82 -50z"/>
<path d="M2286 1546 c-41 -151 -151 -312 -242 -357 -53 -25 -47 -38 7 -15 51
22 159 141 196 216 33 69 66 181 61 209 -2 9 -12 -15 -22 -53z"/>
<path d="M2596 1555 c-4 -16 -12 -50 -17 -75 -20 -89 -61 -188 -117 -282 -64
-107 -108 -162 -201 -255 -35 -35 -62 -66 -58 -69 9 -9 193 181 237 247 24 34
60 98 81 144 40 86 94 272 86 302 -3 13 -6 9 -11 -12z"/>
<path d="M2083 1493 c-12 -26 -26 -66 -33 -88 -7 -22 -16 -49 -20 -60 -31 -82
-54 -176 -37 -154 7 9 116 344 113 347 -2 1 -12 -19 -23 -45z"/>
<path d="M797 1393 c4 -10 12 -22 20 -26 7 -4 13 -13 13 -20 1 -7 26 -37 57
-67 56 -55 52 -49 -44 73 -50 61 -56 67 -46 40z"/>
<path d="M2576 1352 c-89 -283 -376 -562 -665 -647 l-74 -22 -32 -90 c-18 -49
-44 -116 -59 -149 -15 -32 -21 -52 -13 -44 8 8 38 69 67 135 29 66 59 125 68
131 9 6 40 19 70 29 30 9 71 26 91 38 20 11 50 27 66 35 59 30 205 143 269
209 80 82 108 116 117 143 6 16 15 30 20 30 5 0 9 7 9 15 0 8 5 15 11 15 5 0
8 4 5 9 -3 5 1 14 10 21 8 7 13 19 10 26 -3 7 -1 14 3 16 9 3 54 148 48 154
-2 2 -12 -22 -21 -54z"/>
<path d="M1470 1350 c0 -12 40 -111 72 -180 12 -25 29 -67 39 -95 16 -45 18
-47 18 -19 1 17 -21 80 -48 141 -28 61 -53 122 -57 137 -6 25 -24 37 -24 16z"/>
<path d="M2020 779 c-52 -27 -84 -46 -70 -43 29 8 180 82 180 89 0 9 -13 3
-110 -46z"/>
<path d="M1873 727 c-48 -14 -58 -22 -67 -57 l-6 -25 12 25 c16 32 23 37 69
44 22 3 39 11 39 16 0 6 -1 10 -2 9 -2 -1 -22 -6 -45 -12z"/>
<path d="M1706 428 c-15 -29 -43 -77 -61 -105 -19 -29 -33 -53 -30 -53 14 0
131 197 122 206 -2 2 -16 -20 -31 -48z"/>
<path d="M1446 315 c10 -78 16 -95 34 -105 24 -13 50 -13 50 0 0 6 -8 10 -17
8 -18 -3 -44 38 -62 102 l-10 35 5 -40z"/>
<path d="M1640 273 c0 -10 -72 -72 -116 -100 -18 -11 -18 -11 1 -7 27 7 132
100 123 110 -5 4 -8 2 -8 -3z"/>
</g>
</svg>
